<svg width="44" height="32" viewBox="0 0 44 32" fill="none" xmlns="http://www.w3.org/2000/svg">
<path d="M0 1.81605C0 1.32898 0.160035 0.904544 0.480104 0.542727C0.81409 0.180909 1.27332 0 1.8578 0H8.47489C13.9856 0 18.1326 1.36377 20.9159 4.09132C23.5599 6.70755 24.8819 10.444 24.8819 15.3007C24.8819 20.4914 23.3929 24.5758 20.4149 27.5538C17.4508 30.5179 13.3455 32 8.09915 32H1.8578C1.27332 32 0.81409 31.8191 0.480104 31.4573C0.160035 31.0815 0 30.6501 0 30.1631V1.81605ZM9.10111 4.5923H8.0574C7.59817 4.5923 6.65884 4.61318 5.2394 4.65492V27.3868L8.64188 27.4494H8.76712C14.1526 27.4494 17.4647 25.1255 18.7032 20.4775C19.1068 18.9746 19.3085 17.3116 19.3085 15.4886C19.3085 13.6517 19.0859 12.0722 18.6406 10.7502C18.2092 9.41422 17.5621 8.28702 16.6993 7.36856C14.9598 5.51772 12.427 4.5923 9.10111 4.5923Z" fill="url(#paint0_linear_3901_806)"/>
<path d="M19.2944 4.55055H11.7588C11.397 4.55055 11.0839 4.43923 10.8195 4.21657C10.569 3.98 10.4437 3.69472 10.4437 3.36073V1.16895C10.4437 0.84888 10.569 0.577517 10.8195 0.35486C11.0839 0.118287 11.397 0 11.7588 0H32.3824C32.7442 0 33.0156 0.118287 33.1965 0.35486C33.3913 0.577517 33.4887 0.855838 33.4887 1.18982V3.3816C33.4887 3.70167 33.3913 3.98 33.1965 4.21657C33.0017 4.43923 32.7234 4.55055 32.3615 4.55055H24.5546V30.6641C24.5546 31.0259 24.4363 31.339 24.1998 31.6034C23.9771 31.8678 23.7057 32 23.3857 32H20.4424C20.1224 32 19.851 31.8678 19.6283 31.6034C19.4057 31.339 19.2944 31.0259 19.2944 30.6641V4.55055Z" fill="url(#paint1_linear_3901_806)"/>
<path d="M26.8992 30.7058C26.8992 31.5686 26.4261 32 25.4798 32H23.0166C22.5296 32 22.1817 31.8678 21.9729 31.6034C21.7642 31.339 21.6598 31.0398 21.6598 30.7058V1.83692C21.6598 1.34986 21.785 0.925419 22.0355 0.563601C22.2999 0.187867 22.7244 0 23.3089 0H31.575C35.4715 0 38.4913 0.932377 40.6344 2.79713C42.8749 4.73146 43.9951 7.4938 43.9951 11.0841C43.9951 14.7023 42.7357 17.5969 40.2169 19.7678C37.8233 21.8413 34.7966 22.878 31.1366 22.878C29.9816 22.878 28.5691 22.7736 26.8992 22.5649V30.7058ZM26.8992 18.1813L28.5691 18.3692C29.0701 18.4249 29.752 18.4527 30.6148 18.4527C31.4776 18.4527 32.41 18.3205 33.4119 18.0561C34.4139 17.7917 35.2906 17.3673 36.0421 16.7828C37.6981 15.5164 38.5261 13.6238 38.5261 11.105C38.5261 7.91824 37.1136 5.86562 34.2886 4.94716C33.4119 4.66884 32.4308 4.52968 31.3454 4.52968H26.8992V18.1813Z" fill="url(#paint2_linear_3901_806)"/>
<defs>
<linearGradient id="paint0_linear_3901_806" x1="0" y1="0" x2="44.9198" y2="1.35545" gradientUnits="userSpaceOnUse">
<stop stop-color="#8AD4EC"/>
<stop offset="0.217372" stop-color="#EF96FF"/>
<stop offset="0.540308" stop-color="#FF56A9"/>
<stop offset="0.852826" stop-color="#FFAA6C"/>
</linearGradient>
<linearGradient id="paint1_linear_3901_806" x1="0" y1="0" x2="44.9198" y2="1.35545" gradientUnits="userSpaceOnUse">
<stop stop-color="#8AD4EC"/>
<stop offset="0.217372" stop-color="#EF96FF"/>
<stop offset="0.540308" stop-color="#FF56A9"/>
<stop offset="0.852826" stop-color="#FFAA6C"/>
</linearGradient>
<linearGradient id="paint2_linear_3901_806" x1="0" y1="0" x2="44.9198" y2="1.35545" gradientUnits="userSpaceOnUse">
<stop stop-color="#8AD4EC"/>
<stop offset="0.217372" stop-color="#EF96FF"/>
<stop offset="0.540308" stop-color="#FF56A9"/>
<stop offset="0.852826" stop-color="#FFAA6C"/>
</linearGradient>
</defs>
</svg>
