<svg width="26" height="26" viewBox="0 0 26 26" fill="none" xmlns="http://www.w3.org/2000/svg">
<path d="M15.5466 10.4533C16.2221 11.1288 16.6015 12.0448 16.6015 13C16.6015 13.9552 16.2221 14.8712 15.5466 15.5467C14.8712 16.2221 13.9552 16.6015 13 16.6015C12.0448 16.6015 11.1287 16.2221 10.4533 15.5467C9.77788 14.8712 9.39844 13.9552 9.39844 13C9.39844 12.527 9.49159 12.0587 9.67259 11.6218C9.85358 11.1848 10.1189 10.7878 10.4533 10.4533C10.7877 10.1189 11.1848 9.85361 11.6217 9.67262C12.0587 9.49163 12.527 9.39847 13 9.39847C13.9552 9.39847 14.8712 9.77791 15.5466 10.4533" stroke="white" stroke-width="1.5" stroke-linecap="round" stroke-linejoin="round"/>
<path d="M4.00005 13C4.00005 13.396 4.03605 13.792 4.08405 14.176L1.96672 15.832C1.73962 16.0098 1.58437 16.2637 1.5295 16.5469C1.47462 16.8301 1.52382 17.1235 1.66805 17.3733L3.55072 20.6307C3.6949 20.8801 3.92419 21.0692 4.19654 21.1633C4.46888 21.2573 4.766 21.25 5.03338 21.1427L6.92939 20.3813C7.11395 20.3099 7.31317 20.2846 7.50974 20.3076C7.70632 20.3306 7.8943 20.4012 8.05739 20.5133C8.35072 20.708 8.65472 20.8867 8.96939 21.0467C9.32939 21.2293 9.59072 21.556 9.64805 21.956L9.93739 23.9733C10.0214 24.5627 10.5267 25 11.1214 25H14.8774C15.1653 25 15.4435 24.8962 15.661 24.7076C15.8785 24.519 16.0206 24.2583 16.0614 23.9733L16.3507 21.9573C16.3822 21.7616 16.4609 21.5765 16.5798 21.4178C16.6987 21.2592 16.8544 21.1318 17.0334 21.0467C17.3467 20.8893 17.6494 20.712 17.9414 20.5187C18.1049 20.4053 18.2936 20.3337 18.4912 20.3099C18.6887 20.2862 18.889 20.3112 19.0747 20.3827L20.9667 21.1427C21.2341 21.2497 21.5312 21.2569 21.8034 21.1629C22.0757 21.0688 22.305 20.8799 22.4494 20.6307L24.3321 17.3733C24.4763 17.1235 24.5255 16.8301 24.4706 16.5469C24.4157 16.2637 24.2605 16.0098 24.0334 15.832L21.9161 14.176C21.9641 13.792 22.0001 13.396 22.0001 13C22.0001 12.604 21.9641 12.208 21.9161 11.824L24.0334 10.168C24.2605 9.99015 24.4157 9.7363 24.4706 9.45312C24.5255 9.16994 24.4763 8.87647 24.3321 8.62667L22.4494 5.36933C22.3052 5.11988 22.0759 4.93078 21.8036 4.83674C21.5312 4.74269 21.2341 4.75 20.9667 4.85733L19.0747 5.61733C18.889 5.68845 18.6887 5.71323 18.4912 5.68953C18.2938 5.66584 18.105 5.59438 17.9414 5.48133C17.6495 5.2874 17.3463 5.11109 17.0334 4.95333C16.8544 4.86818 16.6987 4.7408 16.5798 4.58217C16.4609 4.42354 16.3822 4.2384 16.3507 4.04267L16.0627 2.02667C16.022 1.7417 15.8798 1.48099 15.6623 1.2924C15.4448 1.10381 15.1666 0.999988 14.8787 1H11.1227C10.8348 0.999988 10.5566 1.10381 10.3391 1.2924C10.1216 1.48099 9.97948 1.7417 9.93872 2.02667L9.64805 4.04533C9.61651 4.24035 9.53834 4.42487 9.42018 4.58319C9.30202 4.74151 9.14737 4.86895 8.96939 4.95467C8.65472 5.11467 8.35072 5.29467 8.05739 5.488C7.8938 5.59961 7.70555 5.66981 7.50883 5.69258C7.31211 5.71534 7.1128 5.68997 6.92805 5.61867L5.03338 4.85733C4.766 4.75 4.46888 4.74269 4.19654 4.83674C3.92419 4.93078 3.6949 5.11988 3.55072 5.36933L1.66805 8.62667C1.52382 8.87647 1.47462 9.16994 1.5295 9.45312C1.58437 9.7363 1.73962 9.99015 1.96672 10.168L4.08405 11.824C4.03177 12.2139 4.00372 12.6066 4.00005 13V13Z" stroke="white" stroke-width="1.5" stroke-linecap="round" stroke-linejoin="round"/>
</svg>
